<?xml version="1.0" encoding="UTF-8" standalone="no"?>
<!-- Created with Inkscape (http://www.inkscape.org/) -->

<svg
   width="1200"
   height="98.65509"
   viewBox="0 0 317.5 26.102492"
   version="1.1"
   id="svg5"
   inkscape:version="1.2.2 (b0a8486541, 2022-12-01)"
   sodipodi:docname="logo-black.svg"
   inkscape:export-filename="logo-full-black-2025.png"
   inkscape:export-xdpi="96"
   inkscape:export-ydpi="96"
   xml:space="preserve"
   xmlns:inkscape="http://www.inkscape.org/namespaces/inkscape"
   xmlns:sodipodi="http://sodipodi.sourceforge.net/DTD/sodipodi-0.dtd"
   xmlns="http://www.w3.org/2000/svg"
   xmlns:svg="http://www.w3.org/2000/svg"><sodipodi:namedview
     id="namedview7"
     pagecolor="#ffffff"
     bordercolor="#000000"
     borderopacity="0.25"
     inkscape:showpageshadow="2"
     inkscape:pageopacity="0.0"
     inkscape:pagecheckerboard="0"
     inkscape:deskcolor="#d1d1d1"
     inkscape:document-units="mm"
     showgrid="false"
     inkscape:zoom="0.93701144"
     inkscape:cx="653.14037"
     inkscape:cy="108.32312"
     inkscape:window-width="1854"
     inkscape:window-height="1011"
     inkscape:window-x="0"
     inkscape:window-y="0"
     inkscape:window-maximized="1"
     inkscape:current-layer="layer1"
     showguides="true"
     shape-rendering="auto" /><defs
     id="defs2" /><g
     inkscape:label="Layer 1"
     inkscape:groupmode="layer"
     id="layer1"
     transform="translate(-33.340446,-127.07061)"><g
       id="g44472"
       transform="matrix(2.9236111,0,0,2.9236111,-114.88995,-294.0345)"
       style="fill:#faf7f0;fill-opacity:1"><g
         id="g44432"
         style="fill:#faf7f0;fill-opacity:1"><path
           d="m 56.987562,145.74408 1.257286,0.3175 -0.266698,-1.77798 h -6.997621 l -0.279397,1.77798 1.269986,-0.3175 h 1.485883 v 5.72764 l -0.457195,1.24458 h 2.946367 l -0.444495,-1.24458 v -5.72764 z"
           style="font-weight:600;font-size:12.7px;font-family:Arpona;-inkscape-font-specification:'Arpona Semi-Bold';fill:#faf7f0;fill-opacity:1;stroke-width:0.26458"
           id="path27378" /><path
           d="M 64.836081,151.30662 H 61.31822 v -2.19708 h 2.438373 l 0.88899,0.1778 v -1.71448 l -0.88899,0.1778 H 61.31822 v -2.05738 h 3.390862 l 1.257286,0.3302 -0.266697,-1.73988 h -6.680125 l 0.279397,1.24458 v 5.94354 l -0.279397,1.24458 h 6.807124 l 0.253997,-1.73988 z"
           style="font-weight:600;font-size:12.7px;font-family:Arpona;-inkscape-font-specification:'Arpona Semi-Bold';fill:#faf7f0;fill-opacity:1;stroke-width:0.26458"
           id="path27380" /><path
           d="m 75.161075,152.7163 -2.501872,-3.53056 c 0.609593,-0.1651 1.066788,-0.44449 1.371585,-0.85089 0.304796,-0.39369 0.457195,-0.87629 0.457195,-1.46048 0,-0.85089 -0.253998,-1.49859 -0.761992,-1.93038 -0.507994,-0.4318 -1.295385,-0.66039 -2.362173,-0.66039 h -4.381451 l 0.279397,1.24458 v 5.93084 l -0.279397,1.25728 h 2.61617 l -0.292096,-1.25728 v -1.89228 h 1.422384 l 1.409684,2.12087 0.177798,1.02869 z m -4.279852,-4.55925 h -1.625582 v -2.52727 h 1.79068 c 0.495295,0 0.86359,0.1143 1.092188,0.3175 0.228597,0.2032 0.342896,0.52069 0.342896,0.95249 0,0.83819 -0.533394,1.25728 -1.600182,1.25728 z"
           style="font-weight:600;font-size:12.7px;font-family:Arpona;-inkscape-font-specification:'Arpona Semi-Bold';fill:#faf7f0;fill-opacity:1;stroke-width:0.26458"
           id="path27382" /><path
           d="m 83.949369,152.7163 -2.501872,-3.53056 c 0.609593,-0.1651 1.066788,-0.44449 1.371584,-0.85089 0.304797,-0.39369 0.457195,-0.87629 0.457195,-1.46048 0,-0.85089 -0.253997,-1.49859 -0.761991,-1.93038 -0.507995,-0.4318 -1.295386,-0.66039 -2.362174,-0.66039 H 75.77066 l 0.279397,1.24458 v 5.93084 l -0.279397,1.25728 h 2.616171 l -0.292097,-1.25728 v -1.89228 h 1.422384 l 1.409684,2.12087 0.177798,1.02869 z m -4.279852,-4.55925 h -1.625582 v -2.52727 h 1.79068 c 0.495294,0 0.86359,0.1143 1.092187,0.3175 0.228598,0.2032 0.342897,0.52069 0.342897,0.95249 0,0.83819 -0.533394,1.25728 -1.600182,1.25728 z"
           style="font-weight:600;font-size:12.7px;font-family:Arpona;-inkscape-font-specification:'Arpona Semi-Bold';fill:#faf7f0;fill-opacity:1;stroke-width:0.26458"
           id="path27384" /><path
           d="m 89.308704,144.2836 h -2.590771 l 0.330196,0.80009 -3.213064,7.63262 h 2.158976 l 0.114298,-1.09219 0.190498,-0.4826 h 3.682959 l 0.190498,0.4826 0.114299,1.09219 h 2.527271 z m -2.451073,5.49904 1.295386,-3.20036 1.282685,3.20036 z"
           style="font-weight:600;font-size:12.7px;font-family:Arpona;-inkscape-font-specification:'Arpona Semi-Bold';fill:#faf7f0;fill-opacity:1;stroke-width:0.26458"
           id="path27386" /></g><g
         id="g44452"
         style="fill:#faf7f0;fill-opacity:1"><g
           id="g28152"
           transform="matrix(0.9999888,0,0,0.9999888,0.52972863,0.00161329)"
           style="fill:#faf7f0;fill-opacity:1"><path
             d="m 126.29582,145.5282 v 5.9309 l -0.2794,1.2573 h 4.572 c 1.0541,0 1.8415,-0.2032 2.3749,-0.6223 0.5207,-0.4064 0.7874,-0.9906 0.7874,-1.7399 0,-0.4953 -0.1778,-0.9144 -0.5207,-1.27 -0.3556,-0.3556 -0.8509,-0.5969 -1.4986,-0.7366 0.4826,-0.127 0.8509,-0.3429 1.0922,-0.6477 0.2286,-0.2921 0.3556,-0.6731 0.3556,-1.1303 0,-0.7112 -0.2286,-1.27 -0.6858,-1.6764 -0.4572,-0.4064 -1.1684,-0.6096 -2.1209,-0.6096 h -4.3561 z m 4.9022,1.1938 c 0,0.6985 -0.5334,1.0414 -1.5748,1.0414 h -1.3462 v -2.1336 h 1.524 c 0.4826,0 0.8382,0.1016 1.0668,0.2794 0.2159,0.1905 0.3302,0.4572 0.3302,0.8128 z m 0.0635,4.3434 c -0.2286,0.2032 -0.5842,0.2921 -1.0668,0.2921 h -1.9177 v -2.2987 h 1.7526 c 0.4953,0 0.8763,0.1016 1.1557,0.2921 0.2794,0.2032 0.4191,0.4826 0.4191,0.8382 0,0.381 -0.1143,0.6731 -0.3429,0.8763 z"
             style="font-weight:600;font-size:12.7px;font-family:Arpona;-inkscape-font-specification:'Arpona Semi-Bold';fill:#faf7f0;fill-opacity:1;stroke-width:0.264583"
             id="path27392" /><path
             d="m 136.64632,152.44335 c 0.6477,0.3556 1.4097,0.5207 2.2733,0.5207 0.889,0 1.651,-0.1651 2.2987,-0.5207 0.635,-0.3556 1.1303,-0.8636 1.4859,-1.5367 0.3429,-0.6731 0.5207,-1.4732 0.5207,-2.413 0,-1.4097 -0.381,-2.5019 -1.143,-3.2893 -0.762,-0.7747 -1.8161,-1.1684 -3.1623,-1.1684 -1.3589,0 -2.413,0.3937 -3.175,1.1684 -0.762,0.7874 -1.143,1.8796 -1.143,3.2893 0,0.9398 0.1778,1.7399 0.5334,2.413 0.3556,0.6731 0.8509,1.1811 1.5113,1.5367 z m 3.8608,-1.7145 c -0.3937,0.4826 -0.9271,0.7239 -1.6129,0.7239 -0.6858,0 -1.2192,-0.2413 -1.6002,-0.7239 -0.381,-0.4826 -0.5715,-1.2192 -0.5715,-2.2352 0,-1.0033 0.1905,-1.7526 0.5842,-2.2352 0.381,-0.4826 0.9271,-0.7239 1.6129,-0.7239 0.6858,0 1.2192,0.2413 1.6002,0.7239 0.381,0.4826 0.5715,1.2192 0.5715,2.2352 0,1.016 -0.2032,1.7526 -0.5842,2.2352 z"
             style="font-weight:600;font-size:12.7px;font-family:Arpona;-inkscape-font-specification:'Arpona Semi-Bold';fill:#faf7f0;fill-opacity:1;stroke-width:0.264583"
             id="path27394" /><path
             d="m 149.75271,145.7441 1.2573,0.3175 -0.2667,-1.778 h -6.9977 l -0.2794,1.778 1.27,-0.3175 h 1.4859 v 5.7277 l -0.4572,1.2446 h 2.9464 l -0.4445,-1.2446 v -5.7277 z"
             style="font-weight:600;font-size:12.7px;font-family:Arpona;-inkscape-font-specification:'Arpona Semi-Bold';fill:#faf7f0;fill-opacity:1;stroke-width:0.264583"
             id="path27396" /><path
             d="m 155.26451,144.2836 h -2.5908 l 0.3302,0.8001 -3.2131,7.6327 h 2.159 l 0.1143,-1.0922 0.1905,-0.4826 h 3.683 l 0.1905,0.4826 0.1143,1.0922 h 2.5273 z m -2.4511,5.4991 1.2954,-3.2004 1.2827,3.2004 z"
             style="font-weight:600;font-size:12.7px;font-family:Arpona;-inkscape-font-specification:'Arpona Semi-Bold';fill:#faf7f0;fill-opacity:1;stroke-width:0.264583"
             id="path27398" /></g><g
           id="g44439"
           style="fill:#faf7f0;fill-opacity:1"><g
             id="g44425"
             style="fill:#faf7f0;fill-opacity:1"><path
               d="m 112.15578,144.2836 0.2667,1.24458 0.0254,5.44824 -3.34006,-6.69282 h -3.03527 l 0.2794,1.24458 v 5.93084 l -0.2794,1.25728 h 2.20978 l -0.2667,-1.25728 -0.0254,-5.43554 3.34006,6.69282 h 2.75587 v -7.18812 l 0.2794,-1.24458 z"
               style="font-weight:600;font-size:12.7px;font-family:Arpona;-inkscape-font-specification:'Arpona Semi-Bold';fill:#faf7f0;fill-opacity:1;stroke-width:0.26458"
               id="path27388" /><path
               d="m 120.1948,144.2836 h -2.59077 l 0.3302,0.80009 -3.21307,7.63261 h 2.15898 l 0.1143,-1.09218 0.1905,-0.4826 h 3.68295 l 0.1905,0.4826 0.1143,1.09218 h 2.52727 z m -2.45107,5.49904 1.29538,-3.20037 1.28269,3.20037 z"
               style="font-weight:600;font-size:12.7px;font-family:Arpona;-inkscape-font-specification:'Arpona Semi-Bold';fill:#faf7f0;fill-opacity:1;stroke-width:0.26458"
               id="path27390" /></g><g
             aria-label="★"
             id="text28360"
             style="font-weight:600;font-size:8.46667px;font-family:Arpona;-inkscape-font-specification:'Arpona Semi-Bold';text-align:center;direction:rtl;text-anchor:middle;fill:#faf7f0;fill-opacity:1;stroke-width:0.264583"
             transform="matrix(1.0875178,0,0,1.0875178,-8.7331243,-23.436989)"><path
               d="m 96.198475,157.37274 h 2.476336 l 0.768945,-2.35231 0.773084,2.35231 h 2.4722 l -2.00091,1.45934 0.76894,2.34818 -2.013314,-1.45521 -2.00918,1.45521 0.764811,-2.34818 z"
               id="path28550"
               style="fill:#faf7f0;fill-opacity:1" /></g></g></g></g></g></svg>
